<?xml version="1.0" encoding="utf-8"?>
<!-- Generator: Adobe Illustrator 16.0.0, SVG Export Plug-In . SVG Version: 6.00 Build 0)  -->
<!DOCTYPE svg PUBLIC "-//W3C//DTD SVG 1.1//EN" "http://www.w3.org/Graphics/SVG/1.1/DTD/svg11.dtd">
<svg version="1.1" id="Layer_1" xmlns="http://www.w3.org/2000/svg" xmlns:xlink="http://www.w3.org/1999/xlink" x="0px" y="0px"
	 width="16.986px" height="21.45px" viewBox="0 0 16.986 21.45" enable-background="new 0 0 16.986 21.45" xml:space="preserve">
<g>
	<path fill="#939598" d="M4.752,8.169c0,0-0.192-1.965,3.162-2.178c0,0,3.893-0.27,4.223,2.178c0,0,0.115,0.715,0,1.928
		c0,0,0.365,0.098,0.397,0.514c0,0,0.077,1.324-0.564,1.955h-0.33c0,0-0.776,2.742-1.624,3.211c0,0,6.122,1.305,6.971,3.721v1.953H0
		v-1.85c0,0,0.204-1.363,2.106-2.033c0,0,3.482-1.887,4.831-1.719c0,0-1.066-0.953-1.632-3.266c0,0-0.72,0.463-0.873-1.17
		c0,0-0.18-1.128,0.36-1.271L4.752,8.169z"/>
	<path fill="#939598" d="M4.395,7.626l-4.32-2.152l8.227-5.455c0,0,0.125-0.074,0.286,0.072l8.091,5.383l-4.164,2.152
		c0,0,0.105-2.865-4.65-2.551C7.861,5.076,4.256,5.16,4.395,7.626z"/>
	<path fill="#939598" d="M2.439,11.226L2.109,4.41c0,0-0.006-0.01-0.02-0.025C2.235,4.31,2.334,4.16,2.334,3.988
		c0-0.25-0.203-0.451-0.451-0.451c-0.246,0-0.448,0.201-0.448,0.451c0,0.18,0.107,0.334,0.26,0.406
		C1.688,4.4,1.687,4.404,1.682,4.41c0,0-0.408,4.561-0.347,6.925c0,0-0.137,0.938,0.618,0.836
		C1.953,12.171,2.482,12.151,2.439,11.226z"/>
</g>
</svg>
