<?xml version="1.0" encoding="utf-8"?>
<!-- Generator: Adobe Illustrator 16.0.0, SVG Export Plug-In . SVG Version: 6.00 Build 0)  -->
<!DOCTYPE svg PUBLIC "-//W3C//DTD SVG 1.1//EN" "http://www.w3.org/Graphics/SVG/1.1/DTD/svg11.dtd">
<svg version="1.1" id="Layer_1" xmlns="http://www.w3.org/2000/svg" xmlns:xlink="http://www.w3.org/1999/xlink" x="0px" y="0px"
	 width="17.854px" height="18.634px" viewBox="0 0 17.854 18.634" enable-background="new 0 0 17.854 18.634" xml:space="preserve">
<g>
	<g>
		<path fill="#939598" d="M2.841,18.634h12.173c1.566,0,2.841-1.275,2.841-2.842V9.262V7.707V4.088V2.961V2.84
			c0-1.566-1.274-2.84-2.841-2.84H2.841C1.275,0,0,1.273,0,2.84v0.121v1.127v3.619v1.555v6.531C0,17.359,1.275,18.634,2.841,18.634z
			 M15.521,15.792c0,0.275-0.232,0.508-0.507,0.508H2.841c-0.274,0-0.507-0.232-0.507-0.508V5.373c0-0.273,0.232-0.506,0.507-0.506
			h12.173c0.274,0,0.507,0.232,0.507,0.506V15.792L15.521,15.792z"/>
	</g>
	<g>
		<path fill="#939598" d="M4.759,9.824C4.703,9.742,4.646,9.65,4.59,9.543C4.535,9.438,4.481,9.33,4.432,9.216
			c-0.05-0.11-0.093-0.224-0.131-0.341C4.264,8.762,4.236,8.65,4.217,8.545l2.736-1.168h0.4v4.707h1.195
			c0.057,0.242,0.084,0.473,0.084,0.689c0,0.23-0.027,0.467-0.084,0.711H4.553c-0.055-0.244-0.083-0.48-0.083-0.711
			c0-0.217,0.028-0.447,0.083-0.689h1.215V9.432L4.759,9.824z"/>
		<path fill="#939598" d="M9.764,9.824C9.707,9.742,9.65,9.65,9.596,9.543C9.539,9.438,9.486,9.33,9.436,9.216
			c-0.049-0.11-0.092-0.224-0.13-0.341C9.27,8.762,9.24,8.65,9.222,8.545l2.735-1.168h0.402v4.707h1.194
			c0.056,0.242,0.084,0.473,0.084,0.689c0,0.23-0.028,0.467-0.084,0.711H9.558c-0.056-0.244-0.084-0.48-0.084-0.711
			c0-0.217,0.028-0.447,0.084-0.689h1.214V9.432L9.764,9.824z"/>
	</g>
</g>
</svg>
