<?xml version="1.0" encoding="utf-8"?>
<!-- Generator: Adobe Illustrator 16.0.0, SVG Export Plug-In . SVG Version: 6.00 Build 0)  -->
<!DOCTYPE svg PUBLIC "-//W3C//DTD SVG 1.1//EN" "http://www.w3.org/Graphics/SVG/1.1/DTD/svg11.dtd">
<svg version="1.1" id="Layer_1" xmlns="http://www.w3.org/2000/svg" xmlns:xlink="http://www.w3.org/1999/xlink" x="0px" y="0px"
	 width="19.671px" height="19.671px" viewBox="0 0 19.671 19.671" enable-background="new 0 0 19.671 19.671" xml:space="preserve">
<path fill="#939598" d="M16.155,12.644c-1.142,0-2.157,0.553-2.799,1.402l-6.411-3.455c0.05-0.236,0.078-0.48,0.078-0.73
	c0-0.268-0.033-0.525-0.089-0.775l6.422-3.463C14,6.475,15.015,7.027,16.155,7.027c1.938,0,3.516-1.582,3.516-3.516
	C19.671,1.576,18.094,0,16.155,0c-1.934,0-3.51,1.576-3.51,3.512c0,0.197,0.02,0.391,0.051,0.578L6.382,7.846
	C5.745,6.941,4.696,6.35,3.512,6.35C1.577,6.35,0,7.926,0,9.861c0,1.933,1.577,3.511,3.512,3.511c1.2,0,2.263-0.609,2.896-1.533
	l6.288,3.738c-0.031,0.189-0.051,0.383-0.051,0.582c0,1.934,1.576,3.512,3.51,3.512c1.938,0,3.516-1.578,3.516-3.512
	C19.671,14.22,18.094,12.644,16.155,12.644z"/>
</svg>
