<?xml version="1.0" encoding="utf-8"?>
<!-- Generator: Adobe Illustrator 16.0.0, SVG Export Plug-In . SVG Version: 6.00 Build 0)  -->
<!DOCTYPE svg PUBLIC "-//W3C//DTD SVG 1.1//EN" "http://www.w3.org/Graphics/SVG/1.1/DTD/svg11.dtd">
<svg version="1.1" id="Layer_1" xmlns="http://www.w3.org/2000/svg" xmlns:xlink="http://www.w3.org/1999/xlink" x="0px" y="0px"
	 width="217.583px" height="15.5px" viewBox="0 0 217.583 15.5" enable-background="new 0 0 217.583 15.5" xml:space="preserve">
<g>
	<path fill="#FFFFFF" d="M10.708,8.159l-0.417,2.305c-0.864,0.416-2.545,1.057-3.889,1.249c-2.978,0-5.763-2.017-5.763-5.746
		s2.481-5.554,6.051-6.035c1.665,0,3.137,0.752,3.825,1.249v2.161h-0.88L9.124,1.853C8.691,1.388,7.779,0.764,6.467,0.764
		c-2.369,0-3.986,1.681-3.986,4.818c0,2.593,1.584,5.25,4.386,5.25c0.96,0,1.665-0.528,2.097-0.896l0.865-1.776H10.708z"/>
	<path fill="#FFFFFF" d="M19.351,7.503c0,2.385-1.457,3.761-3.938,4.162c-2.129,0-3.57-1.649-3.57-3.826
		c0-2.401,1.457-3.762,3.938-4.178C17.91,3.661,19.351,5.326,19.351,7.503z M15.813,10.88c1.281,0,1.937-1.312,1.937-3.041
		c0-2.033-0.977-3.394-2.369-3.394c-1.296,0-1.937,1.312-1.937,3.058C13.444,9.328,14.389,10.88,15.813,10.88z"/>
	<path fill="#FFFFFF" d="M24.953,4.766c-0.256-0.192-0.496-0.256-0.928-0.256c-1.088,0-1.921,1.216-1.921,2.961
		c0,1.713,0.928,2.993,2.497,2.993c0.608,0,1.249-0.304,1.809-0.672l0.256,0.608c-0.736,0.528-1.553,0.928-2.609,1.265
		c-2.049,0-3.569-1.345-3.569-3.81c0-2.513,1.841-3.713,3.81-4.194c0.736,0,1.729,0.368,2.209,0.8v1.601h-1.185L24.953,4.766z"/>
	<path fill="#FFFFFF" d="M34.292,11.392l-0.96,0.048l-2.961-3.698l-0.176-0.4v3.377l0.88,0.16l-0.08,0.561l-1.521-0.048
		l-1.841,0.048l-0.08-0.561l1.121-0.16V1.084l-1.121,0.032l-0.08-0.56l1.921-0.497l0.8-0.064V7.07l0.432-0.192l2.593-2.273
		l-0.464-0.16v-0.56l1.329,0.048l1.201-0.048l0.08,0.56l-0.849,0.16l-3.025,2.449l0.352,0.208l3.089,3.458l0.72,0.16l-0.08,0.561
		L34.292,11.392z"/>
	<path fill="#FFFFFF" d="M39.025,5.982l1.825-2.241h1.281v1.601h-1.185c-0.384,0.08-1.088,0.608-1.521,1.137l-0.32,0.384v3.81
		l1.681,0.16l-0.08,0.608l-2.321-0.048l-1.793,0.048l-0.08-0.561l1.121-0.16V4.877l-1.121,0.096l-0.08-0.56l1.921-0.496l0.64-0.048
		L39.025,5.982z"/>
	<path fill="#FFFFFF" d="M44.339,7.343c0,1.825,0.977,3.121,2.657,3.121c0.64,0,1.408-0.304,2-0.672l0.256,0.608
		c-0.769,0.528-1.777,0.977-2.801,1.265c-1.937,0-3.682-1.376-3.682-3.89c0-2.369,1.425-3.633,3.618-4.114
		c2.113,0,2.833,1.329,2.833,3.009v0.672H44.339z M47.557,6.542c0-1.232-0.24-2.081-1.473-2.081c-0.977,0-1.601,0.913-1.729,2.241
		L47.557,6.542z"/>
	<path fill="#FFFFFF" d="M52.143,11.392l-1.841,0.048l-0.08-0.561l1.121-0.16V1.084l-1.121,0.032l-0.08-0.56l1.921-0.497l0.8-0.064
		V10.72l1.201,0.16l-0.08,0.561L52.143,11.392z"/>
	<path fill="#FFFFFF" d="M56.907,11.392l-1.841,0.048l-0.08-0.561l1.121-0.16V1.084l-1.121,0.032l-0.08-0.56l1.921-0.497l0.8-0.064
		V10.72l1.201,0.16l-0.08,0.561L56.907,11.392z"/>
	<path fill="#FFFFFF" d="M65.226,9.824c0.48,0.592,1.361,1.008,2.257,1.008c1.377,0,2.177-0.864,2.177-2.033
		c0-1.088-0.705-1.713-1.665-2.129l-1.937-0.848c-1.152-0.497-2.097-1.233-2.097-2.657c0-1.745,1.601-2.769,3.825-3.233
		c1.008,0,2.129,0.336,2.929,0.928v2.161h-0.8l-0.464-1.457c-0.417-0.432-0.929-0.785-1.889-0.785c-1.264,0-2.017,0.688-2.017,1.761
		c0,0.88,0.624,1.425,1.504,1.809l1.841,0.8c1.265,0.544,2.369,1.344,2.353,2.977c0,1.505-1.024,2.961-4.034,3.585
		c-1.473,0-2.465-0.416-3.313-1.088l-0.352-2.161h1.121L65.226,9.824z"/>
	<path fill="#FFFFFF" d="M76.966,4.766C76.71,4.574,76.47,4.51,76.038,4.51c-1.088,0-1.921,1.216-1.921,2.961
		c0,1.713,0.928,2.993,2.497,2.993c0.608,0,1.249-0.304,1.809-0.672l0.256,0.608c-0.736,0.528-1.553,0.928-2.609,1.265
		c-2.049,0-3.569-1.345-3.569-3.81c0-2.513,1.841-3.713,3.81-4.194c0.736,0,1.729,0.368,2.209,0.8v1.601h-1.185L76.966,4.766z"/>
	<path fill="#FFFFFF" d="M82.208,10.72l0.881,0.16l-0.08,0.561l-1.521-0.048l-1.841,0.048l-0.08-0.561l1.12-0.16V1.068L79.568,1.1
		l-0.08-0.544l1.921-0.497l0.8-0.064v5.186l2.337-1.521c2.049,0,2.385,0.769,2.385,2.801v4.258l1.201,0.16l-0.08,0.561l-1.841-0.048
		l-1.505,0.048l-0.08-0.561l0.784-0.16V6.142c0-0.832-0.384-1.2-1.024-1.2c-0.479,0-1.104,0.352-1.696,0.72l-0.48,0.304V10.72z"/>
	<path fill="#FFFFFF" d="M96.165,7.503c0,2.385-1.457,3.761-3.938,4.162c-2.129,0-3.569-1.649-3.569-3.826
		c0-2.401,1.456-3.762,3.938-4.178C94.724,3.661,96.165,5.326,96.165,7.503z M92.627,10.88c1.28,0,1.937-1.312,1.937-3.041
		c0-2.033-0.977-3.394-2.369-3.394c-1.297,0-1.937,1.312-1.937,3.058C90.258,9.328,91.203,10.88,92.627,10.88z"/>
	<path fill="#FFFFFF" d="M104.768,7.503c0,2.385-1.457,3.761-3.938,4.162c-2.129,0-3.569-1.649-3.569-3.826
		c0-2.401,1.456-3.762,3.938-4.178C103.328,3.661,104.768,5.326,104.768,7.503z M101.231,10.88c1.28,0,1.937-1.312,1.937-3.041
		c0-2.033-0.977-3.394-2.369-3.394c-1.297,0-1.937,1.312-1.937,3.058C98.862,9.328,99.806,10.88,101.231,10.88z"/>
	<path fill="#FFFFFF" d="M107.391,11.392l-1.841,0.048l-0.08-0.561l1.12-0.16V1.084l-1.12,0.032l-0.08-0.56l1.921-0.497l0.8-0.064
		V10.72l1.2,0.16l-0.08,0.561L107.391,11.392z"/>
	<path fill="#FFFFFF" d="M121.457,7.503c0,2.385-1.457,3.761-3.938,4.162c-2.129,0-3.569-1.649-3.569-3.826
		c0-2.401,1.456-3.762,3.938-4.178C120.016,3.661,121.457,5.326,121.457,7.503z M117.919,10.88c1.28,0,1.937-1.312,1.937-3.041
		c0-2.033-0.977-3.394-2.369-3.394c-1.297,0-1.937,1.312-1.937,3.058C115.55,9.328,116.495,10.88,117.919,10.88z"/>
	<path fill="#FFFFFF" d="M125.024,4.062h2.001v0.752h-2.001v5.907l1.841,0.112l-0.08,0.608l-2.48-0.048l-1.841,0.048l-0.08-0.561
		l1.12-0.16V4.813h-1.408V4.542l0.479-0.56h0.929v-0.16c0-0.96,0.305-1.584,0.881-2.241l1.344-1.521h2.018V1.34h-2.081l-0.305,0.432
		c-0.224,0.304-0.336,0.768-0.336,1.809V4.062z"/>
	<path fill="#FFFFFF" d="M140.306,0.204l0.16,2.881h-0.545l-0.896-2.081l-4.241-0.048v4.258l2.241-0.064l0.64-1.681h0.561l-0.16,2
		l0.16,2.161h-0.561l-0.64-1.681l-2.241-0.064v4.802l4.401-0.048l1.072-2.161h0.608l-0.56,2.961l-6.354-0.048l-2.209,0.048
		l-0.08-0.561l1.44-0.208v-9.7l-1.44-0.208l0.08-0.561l2.209,0.048L140.306,0.204z"/>
	<path fill="#FFFFFF" d="M143.635,11.392l-1.841,0.048l-0.08-0.561l1.12-0.16V4.877l-1.12,0.096l-0.08-0.56l1.921-0.496l0.688-0.048
		l0.08,1.345l2.369-1.553c2.049,0,2.385,0.688,2.385,2.609v4.45l1.217,0.16l-0.08,0.561l-1.841-0.048l-1.536,0.048l-0.08-0.561
		l0.8-0.16V6.142c0-0.832-0.368-1.2-1.057-1.2c-0.56,0-1.12,0.352-1.664,0.72l-0.48,0.32v4.738l0.881,0.16l-0.08,0.561
		L143.635,11.392z"/>
	<path fill="#FFFFFF" d="M156.847,4.638l0.864-0.977h0.961v1.296h-0.961l-0.528,0.256c0.097,0.24,0.16,0.496,0.16,0.768
		c0,1.361-0.944,2.321-3.121,2.881c-0.224,0-0.433,0-0.624-0.032l-0.864,0.993c0,0.336,0.24,0.56,0.624,0.56h2.929
		c1.457,0,2.098,0.672,2.098,1.649c0,1.312-1.665,2.593-4.082,3.313c-2.321,0-3.489-0.72-3.489-2.208v-0.272l1.744-1.344
		c-1.12-0.417-1.2-0.929-1.2-1.665V9.76l1.601-1.104c-1.008-0.352-1.664-1.121-1.664-2.113c0-1.361,0.928-2.321,3.121-2.881
		C155.455,3.661,156.335,4.029,156.847,4.638z M153.133,11.665c-0.815,0.896-0.88,1.185-0.88,1.408c0,0.752,0.864,1.329,2.177,1.329
		s2.433-0.848,2.433-1.92c0-0.577-0.432-0.816-1.521-0.816H153.133z M154.174,4.397c-0.864,0-1.36,0.672-1.36,1.697
		c0,0.768,0.336,2.017,1.648,2.017c0.864,0,1.36-0.592,1.36-1.521C155.823,5.758,155.487,4.397,154.174,4.397z"/>
	<path fill="#FFFFFF" d="M161.493,11.392l-1.841,0.048l-0.08-0.561l1.12-0.16V4.877l-1.12,0.096l-0.08-0.56l1.921-0.496l0.8-0.064
		v6.867l1.2,0.16l-0.08,0.561L161.493,11.392z M160.692,0.38l1.152-0.08l0.448,0.08l0.08,0.896l-0.176,0.768l-1.137,0.096
		l-0.433-0.096l-0.096-0.896L160.692,0.38z"/>
	<path fill="#FFFFFF" d="M166.297,11.392l-1.841,0.048l-0.08-0.561l1.12-0.16V4.877l-1.12,0.096l-0.08-0.56l1.921-0.496l0.688-0.048
		l0.08,1.345l2.369-1.553c2.049,0,2.385,0.688,2.385,2.609v4.45l1.217,0.16l-0.08,0.561l-1.841-0.048l-1.536,0.048l-0.08-0.561
		l0.8-0.16V6.142c0-0.832-0.368-1.2-1.057-1.2c-0.56,0-1.12,0.352-1.664,0.72l-0.48,0.32v4.738l0.881,0.16l-0.08,0.561
		L166.297,11.392z"/>
	<path fill="#FFFFFF" d="M175.05,7.343c0,1.825,0.977,3.121,2.657,3.121c0.64,0,1.408-0.304,2.001-0.672l0.256,0.608
		c-0.769,0.528-1.776,0.977-2.801,1.265c-1.938,0-3.682-1.376-3.682-3.89c0-2.369,1.424-3.633,3.617-4.114
		c2.113,0,2.833,1.329,2.833,3.009v0.672H175.05z M178.267,6.542c0-1.232-0.239-2.081-1.472-2.081c-0.977,0-1.602,0.913-1.729,2.241
		L178.267,6.542z"/>
	<path fill="#FFFFFF" d="M182.613,7.343c0,1.825,0.977,3.121,2.657,3.121c0.64,0,1.408-0.304,2.001-0.672l0.256,0.608
		c-0.769,0.528-1.776,0.977-2.801,1.265c-1.938,0-3.682-1.376-3.682-3.89c0-2.369,1.424-3.633,3.617-4.114
		c2.113,0,2.833,1.329,2.833,3.009v0.672H182.613z M185.83,6.542c0-1.232-0.239-2.081-1.472-2.081c-0.977,0-1.602,0.913-1.729,2.241
		L185.83,6.542z"/>
	<path fill="#FFFFFF" d="M191.008,5.982l1.825-2.241h1.28v1.601h-1.185c-0.384,0.08-1.089,0.608-1.521,1.137l-0.32,0.384v3.81
		l1.681,0.16l-0.08,0.608l-2.321-0.048l-1.792,0.048l-0.08-0.561l1.12-0.16V4.877l-1.12,0.096l-0.08-0.56l1.921-0.496l0.64-0.048
		L191.008,5.982z"/>
	<path fill="#FFFFFF" d="M197.005,11.392l-1.841,0.048l-0.08-0.561l1.12-0.16V4.877l-1.12,0.096l-0.08-0.56l1.921-0.496l0.8-0.064
		v6.867l1.2,0.16l-0.08,0.561L197.005,11.392z M196.205,0.38l1.152-0.08l0.448,0.08l0.08,0.896l-0.176,0.768l-1.137,0.096
		l-0.433-0.096l-0.096-0.896L196.205,0.38z"/>
	<path fill="#FFFFFF" d="M201.81,11.392l-1.841,0.048l-0.08-0.561l1.12-0.16V4.877l-1.12,0.096l-0.08-0.56l1.921-0.496l0.688-0.048
		l0.08,1.345l2.369-1.553c2.049,0,2.385,0.688,2.385,2.609v4.45l1.217,0.16l-0.08,0.561l-1.841-0.048l-1.536,0.048l-0.08-0.561
		l0.8-0.16V6.142c0-0.832-0.368-1.2-1.057-1.2c-0.56,0-1.12,0.352-1.664,0.72l-0.48,0.32v4.738l0.881,0.16l-0.08,0.561
		L201.81,11.392z"/>
	<path fill="#FFFFFF" d="M215.022,4.638l0.864-0.977h0.961v1.296h-0.961l-0.528,0.256c0.097,0.24,0.16,0.496,0.16,0.768
		c0,1.361-0.944,2.321-3.121,2.881c-0.224,0-0.433,0-0.624-0.032l-0.864,0.993c0,0.336,0.24,0.56,0.624,0.56h2.929
		c1.457,0,2.098,0.672,2.098,1.649c0,1.312-1.665,2.593-4.082,3.313c-2.321,0-3.489-0.72-3.489-2.208v-0.272l1.744-1.344
		c-1.12-0.417-1.2-0.929-1.2-1.665V9.76l1.601-1.104c-1.008-0.352-1.664-1.121-1.664-2.113c0-1.361,0.928-2.321,3.121-2.881
		C213.629,3.661,214.51,4.029,215.022,4.638z M211.308,11.665c-0.815,0.896-0.88,1.185-0.88,1.408c0,0.752,0.864,1.329,2.177,1.329
		s2.433-0.848,2.433-1.92c0-0.577-0.432-0.816-1.521-0.816H211.308z M212.349,4.397c-0.864,0-1.36,0.672-1.36,1.697
		c0,0.768,0.336,2.017,1.648,2.017c0.864,0,1.36-0.592,1.36-1.521C213.998,5.758,213.662,4.397,212.349,4.397z"/>
</g>
</svg>
