<?xml version="1.0" encoding="utf-8"?>
<!-- Generator: Adobe Illustrator 16.0.0, SVG Export Plug-In . SVG Version: 6.00 Build 0)  -->
<!DOCTYPE svg PUBLIC "-//W3C//DTD SVG 1.1//EN" "http://www.w3.org/Graphics/SVG/1.1/DTD/svg11.dtd">
<svg version="1.1" id="Layer_1" xmlns="http://www.w3.org/2000/svg" xmlns:xlink="http://www.w3.org/1999/xlink" x="0px" y="0px"
	 width="23.062px" height="20.271px" viewBox="0 0 23.062 20.271" enable-background="new 0 0 23.062 20.271" xml:space="preserve">
<g>
	<path fill="#939598" d="M13.688,7.186c-0.373,0.373-0.875,0.586-1.38,0.586c-0.444,0-0.855-0.164-1.157-0.465L6.578,2.732
		L6.164,3.146l1.579,1.578L2.625,9.844c-0.15,0.152-0.271,0.325-0.363,0.52C2.12,10.662,2.062,10.994,2.09,11.32
		C0.738,9.955-0.003,8.223,0,6.439c0.002-1.705,0.68-3.318,1.912-4.541C3.141,0.676,4.773,0,6.509,0c1.025,0,2.002,0.23,2.904,0.682
		c0.368,0.182,0.726,0.403,1.062,0.668l0.161,0.125l3.174,3.172C14.473,5.314,14.42,6.453,13.688,7.186z"/>
	<path fill="#939598" d="M10.08,7.585l-5.117,5.12c-0.24,0.236-0.564,0.369-0.905,0.369c-0.365,0-0.714-0.146-0.979-0.412
		c-0.264-0.264-0.41-0.611-0.41-0.979c0-0.344,0.129-0.666,0.369-0.904L8.155,5.66L10.08,7.585z"/>
	<path fill="#939598" d="M23.062,6.805c0.002,1.795-0.75,3.535-2.117,4.906c-0.813,0.811-1.751,1.748-2.709,2.707L12.707,19.9
		c-0.24,0.24-0.561,0.371-0.904,0.371c-0.368,0-0.717-0.148-0.98-0.412c-0.257-0.26-0.402-0.598-0.408-0.955
		c-0.008-0.352,0.123-0.682,0.367-0.93l5.376-5.379l-0.502-0.502l-5.376,5.379c-0.24,0.238-0.562,0.369-0.904,0.369
		c-0.365,0-0.715-0.145-0.979-0.41c-0.266-0.266-0.412-0.611-0.412-0.979c0-0.346,0.131-0.666,0.37-0.906l5.376-5.378l-0.571-0.57
		l-5.379,5.375c-0.24,0.24-0.562,0.371-0.905,0.371c-0.367,0-0.717-0.146-0.979-0.412c-0.258-0.258-0.401-0.598-0.408-0.955
		c-0.01-0.352,0.122-0.682,0.367-0.928l5.117-5.119l0.156,0.155c0.414,0.413,0.973,0.638,1.57,0.638
		c0.653,0,1.307-0.277,1.793-0.758c0.958-0.964,1.014-2.473,0.121-3.365l-2.492-2.494c1.208-1.125,2.775-1.74,4.434-1.74
		c1.732,0,3.365,0.674,4.598,1.896C22.381,3.484,23.06,5.1,23.062,6.805z"/>
</g>
</svg>
