<?xml version="1.0" encoding="utf-8"?>
<!-- Generator: Adobe Illustrator 16.0.0, SVG Export Plug-In . SVG Version: 6.00 Build 0)  -->
<!DOCTYPE svg PUBLIC "-//W3C//DTD SVG 1.1//EN" "http://www.w3.org/Graphics/SVG/1.1/DTD/svg11.dtd">
<svg version="1.1" id="Layer_1" xmlns="http://www.w3.org/2000/svg" xmlns:xlink="http://www.w3.org/1999/xlink" x="0px" y="0px"
	 width="26.471px" height="20.332px" viewBox="0 0 26.471 20.332" enable-background="new 0 0 26.471 20.332" xml:space="preserve">
<path fill="#939598" d="M26.469,13.705c0-1.115-1.925-2.201-3.642-2.777l0,0c-0.077-0.025-0.573-0.251-0.263-1.21h-0.006
	c0.805-0.84,1.421-2.195,1.421-3.531c0-2.051-1.343-3.129-2.903-3.129c-1.562,0-2.896,1.078-2.896,3.129
	c0,1.34,0.612,2.705,1.42,3.541c0.117,0.318,0.112,0.561,0.054,0.742c0.836,0.716,2.046,2.203,1.631,5.031
	c-0.407-1.287-1.011-2.453-1.768-3.334c-0.742-1.014-2.503-1.925-4.122-2.468c-0.096-0.033-0.705-0.311-0.322-1.49h-0.007
	c0.991-1.035,1.748-2.707,1.748-4.354C16.813,1.326,15.158,0,13.236,0c-1.924,0-3.57,1.326-3.57,3.854
	c0,1.652,0.754,3.332,1.75,4.365c0.389,1.039-0.307,1.424-0.452,1.479c-1.044,0.382-2.172,0.93-3.026,1.554
	c-0.044,0.031-0.086,0.07-0.13,0.104c-0.204,0.156-0.385,0.316-0.546,0.482c-0.093,0.092-0.184,0.188-0.272,0.287
	c-0.001,0.002-0.002,0.002-0.002,0.002c-0.771,0.885-1.388,2.068-1.802,3.375c-0.414-2.828,0.795-4.314,1.633-5.031
	c-0.061-0.18-0.064-0.422,0.053-0.74c0.808-0.84,1.42-2.203,1.42-3.543c0-2.051-1.336-3.127-2.896-3.127S2.49,4.137,2.49,6.188
	c0,1.336,0.615,2.691,1.422,3.533H3.906c0.311,0.959-0.186,1.181-0.264,1.208C1.928,11.503,0,12.591,0,13.705
	c0,0.293,0.002,2.367,0.002,2.658c0,1.473,4.91,3.969,13.254,3.969s13.215-2.494,13.215-3.969
	C26.471,16.072,26.469,13.998,26.469,13.705z"/>
</svg>
