<?xml version="1.0" encoding="utf-8"?>
<!-- Generator: Adobe Illustrator 16.0.0, SVG Export Plug-In . SVG Version: 6.00 Build 0)  -->
<!DOCTYPE svg PUBLIC "-//W3C//DTD SVG 1.1//EN" "http://www.w3.org/Graphics/SVG/1.1/DTD/svg11.dtd">
<svg version="1.1" id="Layer_1" xmlns="http://www.w3.org/2000/svg" xmlns:xlink="http://www.w3.org/1999/xlink" x="0px" y="0px"
	 width="66.5px" height="14.929px" viewBox="0 0 66.5 14.929" enable-background="new 0 0 66.5 14.929" xml:space="preserve">
<g>
	<polygon fill="#FFFFFF" points="6.323,4.922 6.335,4.922 6.335,4.918 6.323,4.918 6.323,4.922 6.323,4.922 	"/>
	<path fill="#FFFFFF" d="M9.144,2.554V2.175H8.909V1.527H8.752c-0.335,0-0.668-0.049-0.989-0.096
		C7.469,1.389,7.191,1.348,6.935,1.348c-0.241,0-0.44,0.037-0.605,0.115C6.163,1.385,5.964,1.348,5.724,1.348
		c-0.257,0-0.534,0.041-0.828,0.084C4.574,1.479,4.241,1.527,3.906,1.527H3.749v0.647H3.516v0.379h0.233v0.514H3.518v0.379h0.231
		v0.703h0.157c0.358,0,0.708-0.055,1.048-0.106C5.24,3.999,5.511,3.957,5.742,3.957c0.186,0,0.326,0.027,0.435,0.084l0,0h0.305l0,0
		C6.59,3.984,6.73,3.957,6.916,3.957c0.231,0,0.502,0.042,0.788,0.086c0.339,0.052,0.69,0.106,1.048,0.106h0.157V3.446h0.231V3.067
		H8.909V2.554H9.144L9.144,2.554L9.144,2.554z M4.906,3.73C4.644,3.771,4.373,3.812,4.104,3.827l0.071-1.994
		C4.438,1.816,4.693,1.78,4.941,1.744C5.224,1.702,5.49,1.663,5.724,1.663c0.181,0,0.323,0.023,0.442,0.073v0.276L6.106,3.68
		C5.999,3.654,5.88,3.642,5.742,3.642C5.487,3.642,5.205,3.685,4.906,3.73L4.906,3.73L4.906,3.73z M7.752,3.73
		C7.453,3.685,7.171,3.642,6.916,3.642c-0.137,0-0.257,0.013-0.363,0.038L6.492,2.013V1.736c0.118-0.05,0.261-0.073,0.442-0.073
		c0.233,0,0.5,0.039,0.782,0.081C7.965,1.78,8.221,1.816,8.481,1.833l0.072,1.994C8.284,3.812,8.015,3.771,7.752,3.73L7.752,3.73
		L7.752,3.73z"/>
	<path fill="#FFFFFF" d="M4.949,2.03C4.934,2.032,4.918,2.035,4.902,2.037C4.753,2.06,4.603,2.081,4.45,2.099L4.441,2.354
		C4.61,2.336,4.775,2.312,4.939,2.287c0.003-0.001,0.006-0.001,0.01-0.002V2.03L4.949,2.03L4.949,2.03z"/>
	<path fill="#FFFFFF" d="M5.139,2.003v0.256c0.269-0.038,0.516-0.064,0.729-0.047L5.877,1.96C5.648,1.943,5.398,1.968,5.139,2.003
		L5.139,2.003L5.139,2.003z"/>
	<path fill="#FFFFFF" d="M4.949,3.187C4.934,3.189,4.918,3.191,4.902,3.194C4.74,3.218,4.575,3.241,4.409,3.261l-0.01,0.254
		c0.184-0.019,0.363-0.045,0.54-0.07c0.003-0.001,0.006-0.001,0.01-0.002V3.187L4.949,3.187L4.949,3.187z"/>
	<path fill="#FFFFFF" d="M5.139,3.16v0.255c0.251-0.034,0.483-0.061,0.688-0.05l0.01-0.251C5.618,3.103,5.383,3.127,5.139,3.16
		L5.139,3.16L5.139,3.16z"/>
	<path fill="#FFFFFF" d="M4.91,2.614V2.87c0.009-0.002,0.019-0.003,0.029-0.005c0.337-0.049,0.646-0.095,0.907-0.077l0.01-0.251
		C5.566,2.52,5.244,2.565,4.91,2.614L4.91,2.614L4.91,2.614z"/>
	<path fill="#FFFFFF" d="M4.72,2.642C4.624,2.655,4.527,2.668,4.43,2.68L4.42,2.935c0.102-0.011,0.201-0.024,0.3-0.038V2.642
		L4.72,2.642L4.72,2.642z"/>
	<path fill="#FFFFFF" d="M7.404,1.988C7.186,1.962,6.976,1.945,6.781,1.96L6.79,2.212c0.183-0.016,0.391,0.002,0.614,0.031V1.988
		L7.404,1.988L7.404,1.988z"/>
	<path fill="#FFFFFF" d="M8.208,2.099C8.056,2.081,7.905,2.06,7.756,2.037C7.701,2.029,7.648,2.021,7.594,2.014V2.27
		C7.636,2.275,7.677,2.28,7.72,2.287c0.163,0.024,0.328,0.049,0.497,0.067L8.208,2.099L8.208,2.099L8.208,2.099z"/>
	<path fill="#FFFFFF" d="M7.353,2.561C7.16,2.538,6.975,2.526,6.802,2.537l0.01,0.251c0.163-0.011,0.345,0.003,0.541,0.026V2.561
		L7.353,2.561L7.353,2.561z"/>
	<path fill="#FFFFFF" d="M8.229,2.68C8.069,2.661,7.911,2.639,7.756,2.615c-0.071-0.01-0.144-0.021-0.213-0.03V2.84
		C7.601,2.849,7.659,2.856,7.72,2.865c0.17,0.025,0.343,0.051,0.519,0.069L8.229,2.68L8.229,2.68L8.229,2.68z"/>
	<path fill="#FFFFFF" d="M7.731,3.445C7.903,3.471,8.08,3.496,8.259,3.515l-0.01-0.254c-0.166-0.02-0.331-0.043-0.493-0.066
		C7.748,3.192,7.74,3.191,7.731,3.19V3.445L7.731,3.445L7.731,3.445z"/>
	<path fill="#FFFFFF" d="M7.543,3.163C7.289,3.129,7.047,3.103,6.822,3.114l0.01,0.251c0.21-0.011,0.45,0.017,0.711,0.054V3.163
		L7.543,3.163L7.543,3.163z"/>
	<path fill="#FFFFFF" d="M3.997,6.951L3.997,6.951L5.426,7.99l-0.55,1.692c0,0.003,0.002,0.006,0.004,0.008
		c0.003,0.002,0.006,0.002,0.01,0.002l1.439-1.047l1.439,1.047c0.004,0,0.007,0,0.009-0.002c0.005-0.004,0.006-0.01,0.003-0.015
		L7.232,7.989l1.429-1.038l0,0c0.007-0.003,0.011-0.01,0.009-0.017C8.668,6.929,8.66,6.926,8.654,6.928V6.927H6.888l-0.546-1.68
		H6.341c0-0.007-0.005-0.013-0.012-0.013S6.317,5.24,6.317,5.247H6.316l-0.545,1.68H4.005v0.001C3.998,6.926,3.99,6.929,3.988,6.936
		C3.986,6.941,3.99,6.949,3.997,6.951L3.997,6.951L3.997,6.951z M6.001,7.243l0.328-0.822l0.329,0.822l0.885,0.059L6.861,7.869
		l0.218,0.858l-0.75-0.473L5.58,8.728l0.217-0.858L5.116,7.302L6.001,7.243L6.001,7.243L6.001,7.243z"/>
	<path fill="#FFFFFF" d="M9.875,8.158c0.295-0.088,0.542-0.282,0.695-0.546c0.154-0.265,0.202-0.575,0.135-0.876l-0.03-0.132
		l-0.13,0.039C10.396,6.688,10.26,6.76,10.14,6.854c0.027-0.146,0.027-0.299-0.002-0.448C10.08,6.105,9.912,5.84,9.664,5.659
		l-0.109-0.08L9.482,5.693c-0.163,0.26-0.222,0.569-0.164,0.87c0.058,0.3,0.225,0.563,0.471,0.745
		C9.744,7.412,9.713,7.52,9.698,7.63C9.624,7.431,9.5,7.251,9.333,7.113L9.228,7.026L9.149,7.136
		C8.971,7.386,8.894,7.69,8.934,7.995c0.039,0.303,0.192,0.578,0.429,0.775l0.006,0.003C9.299,8.868,9.243,8.972,9.204,9.081
		C9.174,8.87,9.09,8.67,8.954,8.499L8.869,8.393l-0.1,0.092C8.544,8.691,8.406,8.974,8.381,9.28
		c-0.023,0.305,0.069,0.604,0.26,0.846l0.005,0.006C8.558,10.21,8.483,10.3,8.422,10.398c0.015-0.213-0.027-0.427-0.124-0.622
		l-0.061-0.12L8.121,9.725c-0.265,0.157-0.458,0.405-0.545,0.698c-0.087,0.295-0.059,0.607,0.08,0.883l0.003,0.007
		c-0.103,0.057-0.194,0.13-0.274,0.214c0.059-0.205,0.062-0.424,0.007-0.634l-0.035-0.131l-0.128,0.043
		c-0.29,0.099-0.53,0.302-0.677,0.571c-0.141,0.261-0.179,0.562-0.11,0.851c-0.039,0.026-0.079,0.054-0.121,0.082
		c-0.043-0.028-0.083-0.056-0.121-0.082c0.068-0.288,0.029-0.59-0.111-0.852c-0.146-0.269-0.386-0.472-0.676-0.57l-0.129-0.043
		l-0.034,0.131c-0.056,0.21-0.052,0.429,0.007,0.634c-0.081-0.084-0.173-0.157-0.274-0.214l0.003-0.007
		c0.138-0.275,0.166-0.588,0.08-0.883C4.977,10.13,4.783,9.882,4.52,9.725L4.403,9.656l-0.061,0.12
		c-0.098,0.195-0.139,0.409-0.125,0.622c-0.062-0.1-0.136-0.188-0.224-0.267l0.005-0.006C4.19,9.885,4.282,9.585,4.258,9.279
		C4.234,8.974,4.097,8.691,3.87,8.484l-0.1-0.092L3.687,8.499C3.551,8.67,3.466,8.87,3.436,9.081
		C3.396,8.972,3.342,8.868,3.271,8.773l0.006-0.003c0.237-0.197,0.39-0.473,0.43-0.775C3.746,7.69,3.669,7.386,3.491,7.136
		L3.412,7.026L3.308,7.113C3.14,7.251,3.015,7.431,2.942,7.631C2.928,7.52,2.896,7.412,2.851,7.309
		c0.246-0.182,0.413-0.445,0.471-0.745c0.058-0.301-0.001-0.61-0.163-0.87L3.086,5.579l-0.109,0.08
		C2.729,5.84,2.56,6.105,2.501,6.406C2.473,6.556,2.473,6.708,2.5,6.854C2.381,6.76,2.244,6.688,2.095,6.644L1.966,6.604
		l-0.03,0.132c-0.067,0.301-0.02,0.611,0.134,0.876c0.154,0.264,0.4,0.458,0.695,0.546l0.114,0.035
		c0.012,0.096,0.035,0.19,0.07,0.281C2.786,8.37,2.6,8.307,2.402,8.291L2.268,8.279L2.266,8.415
		C2.262,8.723,2.373,9.017,2.577,9.243C2.782,9.47,3.063,9.608,3.371,9.635l0.118,0.01c0.031,0.092,0.075,0.18,0.128,0.261
		c-0.134-0.05-0.274-0.076-0.42-0.076c-0.051,0-0.103,0.003-0.153,0.01L2.91,9.855l0.026,0.133c0.059,0.302,0.228,0.566,0.476,0.747
		c0.206,0.149,0.45,0.228,0.705,0.228c0.051,0,0.102-0.003,0.151-0.009l0.118-0.016c0.05,0.084,0.11,0.16,0.179,0.229
		c-0.192-0.028-0.39-0.012-0.574,0.053l-0.128,0.045l0.053,0.124c0.121,0.283,0.341,0.508,0.62,0.632
		c0.155,0.069,0.318,0.104,0.487,0.104c0.135,0,0.269-0.022,0.396-0.066l0.094-0.033c0.158,0.134,0.335,0.267,0.579,0.435
		c-0.111,0.073-0.234,0.153-0.372,0.241l0.238,0.147c0.134-0.086,0.252-0.164,0.361-0.236c0.107,0.072,0.228,0.15,0.361,0.236
		l0.237-0.147c-0.138-0.088-0.261-0.168-0.372-0.241c0.243-0.168,0.422-0.301,0.58-0.435l0.094,0.033
		c0.128,0.044,0.262,0.066,0.396,0.066l0,0c0.169,0,0.333-0.035,0.488-0.104c0.278-0.124,0.499-0.349,0.619-0.632l0.053-0.124
		l-0.128-0.045c-0.185-0.064-0.383-0.081-0.573-0.053c0.068-0.068,0.129-0.146,0.179-0.229l0.118,0.016
		c0.05,0.006,0.101,0.009,0.15,0.009l0,0c0.256,0,0.5-0.078,0.705-0.228c0.248-0.181,0.417-0.445,0.477-0.747L9.73,9.855
		L9.597,9.839c-0.051-0.007-0.104-0.01-0.154-0.01c-0.145,0-0.286,0.026-0.419,0.076C9.076,9.824,9.119,9.736,9.15,9.645l0.119-0.01
		c0.307-0.026,0.588-0.165,0.793-0.392s0.315-0.521,0.312-0.828l-0.002-0.136l-0.135,0.012C10.04,8.307,9.854,8.37,9.69,8.475
		c0.035-0.091,0.059-0.186,0.071-0.281L9.875,8.158L9.875,8.158L9.875,8.158z M3.129,7.919c0.025-0.19,0.106-0.366,0.232-0.509
		c0.087,0.17,0.12,0.361,0.095,0.552c-0.024,0.19-0.105,0.367-0.232,0.51C3.138,8.302,3.104,8.11,3.129,7.919L3.129,7.919
		L3.129,7.919z M2.75,6.454c0.036-0.189,0.128-0.36,0.263-0.495c0.075,0.176,0.097,0.368,0.061,0.558
		c-0.036,0.188-0.128,0.36-0.263,0.494C2.734,6.836,2.713,6.643,2.75,6.454L2.75,6.454L2.75,6.454z M2.699,7.864
		C2.528,7.782,2.385,7.651,2.288,7.485C2.191,7.318,2.147,7.129,2.161,6.938c0.171,0.082,0.314,0.213,0.412,0.379
		C2.67,7.483,2.713,7.673,2.699,7.864L2.699,7.864L2.699,7.864z M2.765,9.073c-0.128-0.142-0.21-0.318-0.236-0.507
		c0.185,0.043,0.352,0.143,0.48,0.286C3.138,8.993,3.22,9.17,3.246,9.359C3.061,9.314,2.894,9.217,2.765,9.073L2.765,9.073
		L2.765,9.073z M3.801,8.779C3.92,8.928,3.991,9.107,4.007,9.3c0.015,0.192-0.028,0.381-0.123,0.547
		c-0.119-0.148-0.191-0.33-0.206-0.521S3.706,8.943,3.801,8.779L3.801,8.779L3.801,8.779z M3.56,10.53
		c-0.155-0.112-0.271-0.269-0.336-0.448c0.191,0.006,0.374,0.066,0.529,0.18c0.155,0.112,0.271,0.269,0.337,0.448
		C3.898,10.704,3.716,10.643,3.56,10.53L3.56,10.53L3.56,10.53z M5.467,11.103c0.169,0.088,0.308,0.224,0.399,0.393
		c0.091,0.17,0.128,0.361,0.108,0.551c-0.169-0.089-0.309-0.225-0.399-0.394C5.484,11.482,5.447,11.291,5.467,11.103L5.467,11.103
		L5.467,11.103z M4.505,10.587c-0.054-0.184-0.051-0.379,0.008-0.56c0.146,0.121,0.255,0.282,0.309,0.468
		c0.055,0.185,0.052,0.379-0.007,0.56C4.667,10.934,4.56,10.771,4.505,10.587L4.505,10.587L4.505,10.587z M4.639,11.79
		c-0.176-0.077-0.321-0.206-0.422-0.368c0.187-0.034,0.38-0.012,0.555,0.066c0.176,0.079,0.322,0.207,0.423,0.369
		C5.008,11.893,4.813,11.869,4.639,11.79L4.639,11.79L4.639,11.79z M6.773,11.496c0.093-0.17,0.231-0.306,0.399-0.394
		c0.021,0.188-0.018,0.38-0.108,0.55c-0.091,0.169-0.229,0.305-0.399,0.394C6.646,11.856,6.683,11.665,6.773,11.496L6.773,11.496
		L6.773,11.496z M8.424,11.422c-0.101,0.162-0.247,0.291-0.423,0.368c-0.122,0.056-0.251,0.083-0.385,0.083l0,0
		c-0.057,0-0.114-0.005-0.17-0.016c0.1-0.162,0.246-0.29,0.422-0.369C8.043,11.41,8.237,11.388,8.424,11.422L8.424,11.422
		L8.424,11.422z M8.134,10.588c-0.054,0.184-0.161,0.346-0.309,0.467c-0.058-0.181-0.062-0.375-0.008-0.56
		c0.056-0.185,0.163-0.347,0.311-0.468C8.186,10.208,8.188,10.403,8.134,10.588L8.134,10.588L8.134,10.588z M8.633,9.301
		C8.648,9.107,8.721,8.928,8.84,8.779c0.095,0.164,0.137,0.354,0.122,0.546S8.875,9.698,8.756,9.847
		C8.661,9.681,8.618,9.492,8.633,9.301L8.633,9.301L8.633,9.301z M9.08,10.53c-0.155,0.112-0.338,0.174-0.529,0.18
		c0.064-0.18,0.181-0.336,0.336-0.448c0.156-0.113,0.339-0.174,0.53-0.18C9.353,10.262,9.235,10.418,9.08,10.53L9.08,10.53
		L9.08,10.53z M10.479,6.938c0.014,0.19-0.03,0.38-0.127,0.547c-0.098,0.166-0.239,0.297-0.412,0.379
		c-0.013-0.191,0.03-0.381,0.127-0.547C10.165,7.151,10.308,7.021,10.479,6.938L10.479,6.938L10.479,6.938z M9.566,6.517
		C9.531,6.327,9.553,6.135,9.627,5.959C9.763,6.094,9.854,6.265,9.89,6.454c0.037,0.188,0.016,0.382-0.061,0.557
		C9.695,6.877,9.603,6.705,9.566,6.517L9.566,6.517L9.566,6.517z M9.185,7.963C9.159,7.771,9.192,7.58,9.278,7.41
		c0.126,0.143,0.207,0.318,0.232,0.51c0.025,0.19-0.008,0.382-0.094,0.552C9.291,8.329,9.209,8.152,9.185,7.963L9.185,7.963
		L9.185,7.963z M9.875,9.073C9.746,9.217,9.579,9.314,9.394,9.359C9.42,9.17,9.502,8.993,9.631,8.853
		c0.13-0.144,0.297-0.243,0.481-0.286C10.086,8.755,10.004,8.932,9.875,9.073L9.875,9.073L9.875,9.073z"/>
	<path fill="#FFFFFF" d="M11.822,0.589l-0.221-0.028c-0.029-0.004-2.976-0.37-5.271-0.37H6.329c-0.001,0-0.001,0-0.002,0
		c-2.295,0-5.241,0.366-5.271,0.37L0.836,0.589v4.076H0.834v0.569c0,1.718,0.17,3.938,1.497,5.881c0.273,0.4,0.584,0.77,0.956,1.129
		l0,0c0.002,0.002,0.005,0.005,0.007,0.007c0.721,0.692,1.672,1.346,3.032,2.104v0.002c0.001,0,0.001,0,0.002,0c0,0,0,0,0.001,0
		v-0.002c1.361-0.758,2.312-1.412,3.032-2.104c0.003-0.002,0.005-0.005,0.008-0.007l0,0c0.372-0.359,0.683-0.729,0.956-1.129
		c1.327-1.943,1.497-4.163,1.497-5.881V5.153l0,0V0.589L11.822,0.589L11.822,0.589z M1.604,1.011c0.928-0.103,3.013-0.31,4.725-0.31
		s3.797,0.207,4.725,0.31l0.259,3.654H6.329H1.346L1.604,1.011L1.604,1.011L1.604,1.011z M9.908,10.829
		c-0.258,0.377-0.553,0.727-0.907,1.067c-1.096,1.006-2.326,1.562-2.673,1.706c-0.347-0.144-1.577-0.7-2.673-1.706
		c-0.355-0.341-0.65-0.69-0.907-1.067C1.503,9.007,1.34,6.894,1.339,5.252H1.34l4.989-0.277l4.987,0.276
		C11.315,6.894,11.153,9.007,9.908,10.829L9.908,10.829L9.908,10.829z"/>
	<polygon fill="#FFFFFF" points="14.808,1.034 14.808,3.912 15.441,3.912 16.19,1.847 18.63,1.814 18.63,11.671 16.678,11.882 
		16.76,12.451 19.492,12.402 22.127,12.451 22.208,11.882 20.337,11.671 20.337,1.814 22.777,1.847 23.525,3.912 24.16,3.912 
		24.16,1.034 19.476,1.083 14.808,1.034 	"/>
	<polygon fill="#FFFFFF" points="32.699,11.639 28.227,11.688 28.227,6.808 30.503,6.873 31.154,8.58 31.724,8.58 31.561,6.385 
		31.724,4.352 31.154,4.352 30.503,6.06 28.227,6.124 28.227,1.798 32.536,1.847 33.447,3.961 34.001,3.961 33.838,1.034 
		27.381,1.083 25.137,1.034 25.055,1.604 26.519,1.814 26.519,11.671 25.055,11.882 25.137,12.451 27.381,12.402 33.838,12.451 
		34.407,9.442 33.789,9.442 32.699,11.639 	"/>
	<path fill="#FFFFFF" d="M49.062,7.864l1.687-4.877l1.777,4.877H49.062L49.062,7.864z M51.583,0.887l-0.976,0.277l-4.034,10.539
		L45.79,11.81l-0.778-0.122l-3.61-5.319l3.333-4.586l1.27-0.179l-0.081-0.569L44.02,1.083l-1.903-0.049l-0.081,0.569l1.415,0.211
		l-2.581,3.794L38.57,1.798l1.383-0.211l-0.081-0.569l-2.31,0.065l-2.326-0.065l-0.081,0.569l1.269,0.179l3.367,5.091l-3.513,4.831
		l-1.27,0.178l0.082,0.586l1.821-0.049l1.902,0.049l0.082-0.586l-1.334-0.194l2.772-4.057l2.53,4.04l-1.383,0.211l0.082,0.586
		l2.325-0.049l1.9,0.04l1.337-0.04l1.951,0.049l0.081-0.569l-1.415-0.211l1.058-3.042h4.018l1.106,3.042l-1.383,0.211l0.081,0.569
		l2.146-0.049l2.245,0.049l0.081-0.569l-1.269-0.179L51.583,0.887L51.583,0.887z"/>
	<path fill="#FFFFFF" d="M62.61,6.06l-1.87-0.813c-0.895-0.391-1.528-0.943-1.528-1.838c0-1.09,0.765-1.789,2.049-1.789
		c0.977,0,1.497,0.358,1.92,0.797l0.471,1.479h0.813V1.7c-0.813-0.602-1.952-0.943-2.976-0.943
		c-2.262,0.472-3.888,1.513-3.888,3.286c0,1.447,0.96,2.195,2.131,2.699L61.7,7.604c0.976,0.423,1.69,1.058,1.69,2.163
		c0,1.188-0.812,2.065-2.211,2.065c-0.911,0-1.806-0.423-2.293-1.024l-0.569-1.382h-1.139l0.357,2.195
		c0.862,0.683,1.871,1.105,3.367,1.105c3.058-0.634,4.099-2.114,4.099-3.643C65.019,7.425,63.896,6.612,62.61,6.06L62.61,6.06z"/>
</g>
</svg>
